<?xml version="1.0" standalone="no"?><!DOCTYPE svg PUBLIC "-//W3C//DTD SVG 1.1//EN" "http://www.w3.org/Graphics/SVG/1.1/DTD/svg11.dtd"><svg t="1735735987039" class="icon" viewBox="0 0 1024 1024" version="1.1" xmlns="http://www.w3.org/2000/svg" p-id="11253" xmlns:xlink="http://www.w3.org/1999/xlink" width="200" height="200"><path d="M800 96H224c-70.4 0-128 57.6-128 128v576c0 70.4 57.6 128 128 128h576c70.4 0 128-57.6 128-128V224c0-70.4-57.6-128-128-128z m64 704c0 17-6.7 33-18.9 45.1C833 857.3 817 864 800 864H224c-17 0-33-6.7-45.1-18.9C166.7 833 160 817 160 800V224c0-17 6.7-33 18.9-45.1C191 166.7 207 160 224 160h576c17 0 33 6.7 45.1 18.9C857.3 191 864 207 864 224v576z" fill="#1875F0" p-id="11254"></path><path d="M660.5 487.4l-192-160c-9.5-7.9-22.8-9.7-34.1-4.4-11.2 5.3-18.4 16.6-18.4 29v320c0 12.4 7.2 23.7 18.4 29 4.3 2 9 3 13.6 3 7.3 0 14.6-2.5 20.5-7.4l192-160c7.3-6.1 11.5-15.1 11.5-24.6 0-9.5-4.2-18.5-11.5-24.6z" fill="#1875F0" p-id="11255"></path></svg>