<?xml version="1.0" standalone="no"?><!DOCTYPE svg PUBLIC "-//W3C//DTD SVG 1.1//EN" "http://www.w3.org/Graphics/SVG/1.1/DTD/svg11.dtd"><svg t="1735737604943" class="icon" viewBox="0 0 1024 1024" version="1.1" xmlns="http://www.w3.org/2000/svg" p-id="6662" xmlns:xlink="http://www.w3.org/1999/xlink" width="200" height="200"><path d="M576.021333 362.496h-128v-128h128z" fill="#3578EF" p-id="6663"></path><path d="M341.354667 575.829333h-128v-128h128z" fill="#3578EF" p-id="6664"></path><path d="M544 661.333333V149.333333h-64v512z" fill="#3578EF" p-id="6665"></path><path d="M309.333333 661.333333V149.333333h-64v512z" fill="#3578EF" p-id="6666"></path><path d="M810.688 575.829333h-128v-128h128z" fill="#3578EF" p-id="6667"></path><path d="M778.666667 661.333333V149.333333h-64v512z" fill="#3578EF" p-id="6668"></path><path d="M938.666667 85.333333v640H85.333333V85.333333h853.333334m85.333333-85.333333H0v810.666667h1024z" fill="#3578EF" p-id="6669"></path><path d="M938.666667 938.666667H85.333333v85.333333h853.333334v-85.333333z" fill="#3578EF" p-id="6670"></path><path d="M469.333333 725.44h-85.333333V1024h85.333333V725.44z" fill="#3578EF" p-id="6671"></path><path d="M640 725.44h-85.333333V1024h85.333333V725.44z" fill="#3578EF" p-id="6672"></path></svg>