<?xml version="1.0" standalone="no"?><!DOCTYPE svg PUBLIC "-//W3C//DTD SVG 1.1//EN" "http://www.w3.org/Graphics/SVG/1.1/DTD/svg11.dtd"><svg t="1735745750557" class="icon" viewBox="0 0 1024 1024" version="1.1" xmlns="http://www.w3.org/2000/svg" p-id="12970" xmlns:xlink="http://www.w3.org/1999/xlink" width="200" height="200"><path d="M657.92 324.266667a329.813333 329.813333 0 1 0 330.666667 329.386666 330.24 330.24 0 0 0-330.666667-329.386666z m0 587.946666a258.56 258.56 0 1 1 259.413333-258.56 259.413333 259.413333 0 0 1-259.413333 258.56z" fill="#ffffff" p-id="12971"></path><path d="M886.613333 664.746667h-239.786666V507.733333a15.36 15.36 0 0 0-30.293334 0v161.28a15.36 15.36 0 0 0 4.266667 24.32 14.08 14.08 0 0 0 11.093333 4.693334 13.653333 13.653333 0 0 0 8.96-3.413334h245.76a14.933333 14.933333 0 0 0 14.933334-14.933333 14.933333 14.933333 0 0 0-14.933334-14.933333zM248.746667 283.306667h180.906666a33.28 33.28 0 1 0 0-66.56H248.746667a33.28 33.28 0 1 0 0 66.56zM356.266667 341.333333a33.28 33.28 0 0 0-33.28-33.28H248.746667a33.28 33.28 0 0 0 0 66.56h74.24A33.28 33.28 0 0 0 356.266667 341.333333zM273.066667 100.693333h73.386666a33.28 33.28 0 0 0 0-66.56H273.066667a33.28 33.28 0 0 0 0 66.56z" fill="#ffffff" p-id="12972"></path><path d="M273.066667 831.573333H182.613333a85.333333 85.333333 0 0 1-85.333333-85.333333V187.306667a85.333333 85.333333 0 0 1 85.333333-85.333334 33.28 33.28 0 0 0 0-67.84 153.6 153.6 0 0 0-153.6 153.173334v557.653333a153.6 153.6 0 0 0 153.6 153.173333H273.066667a33.28 33.28 0 0 0 0-66.56zM742.4 100.693333a85.333333 85.333333 0 0 1 85.333333 85.333334v84.053333a33.28 33.28 0 1 0 66.133334 0V187.306667A153.173333 153.173333 0 0 0 742.4 34.133333a33.28 33.28 0 0 0 0 66.56zM586.666667 100.693333h73.813333a33.28 33.28 0 1 0 0-66.56h-73.813333a33.28 33.28 0 1 0 0 66.56zM429.653333 100.693333h73.813334a33.28 33.28 0 1 0 0-66.56h-73.813334a33.28 33.28 0 1 0 0 66.56z" fill="#ffffff" p-id="12973"></path></svg>