<?xml version="1.0" standalone="no"?><!DOCTYPE svg PUBLIC "-//W3C//DTD SVG 1.1//EN" "http://www.w3.org/Graphics/SVG/1.1/DTD/svg11.dtd"><svg t="1735745656909" class="icon" viewBox="0 0 1024 1024" version="1.1" xmlns="http://www.w3.org/2000/svg" p-id="7651" xmlns:xlink="http://www.w3.org/1999/xlink" width="200" height="200"><path d="M912.896 636.416c12.8-39.936 19.456-82.944 19.456-126.976 0-231.936-188.928-420.352-420.352-420.352S91.648 278.016 91.648 509.44c0 231.936 188.928 420.352 420.352 420.352 44.032 0 86.016-6.656 125.952-19.456 31.232 20.992 69.12 33.28 110.08 33.28 109.568 0 198.144-88.576 198.144-198.144 0-39.936-12.288-77.312-33.28-109.056z m-415.232 26.624v47.616c0 6.144-4.608 10.24-10.752 10.752h-47.616c-6.144 0-10.24-4.608-10.752-10.752V665.6c-23.04-1.536-46.08-4.096-68.608-8.704-5.632-0.512-10.24-4.608-10.24-10.752v-37.888c0-5.632 4.608-10.24 10.24-10.24h1.536c20.992 2.56 73.216 5.632 93.184 5.632 47.104 0 60.416-16.896 60.416-47.616 0-19.968-10.24-31.232-45.056-51.712l-69.632-40.96C351.232 434.176 337.92 403.968 337.92 367.104c0-48.64 23.552-86.528 89.6-97.28v-44.032c0-6.144 4.608-10.24 10.752-10.752h47.616c6.144 0 10.24 4.608 10.752 10.752v41.984c25.088 1.536 49.664 4.096 74.24 8.704 5.632 1.536 10.24 4.608 10.24 10.24v38.912c0.512 4.608-3.584 9.216-8.192 10.24h-2.048c-34.816-3.584-69.632-5.632-103.936-5.632-38.912 0-55.296 14.336-55.296 36.864 0 17.408 9.216 28.16 43.008 47.104l63.488 34.816c57.856 32.256 73.216 66.048 73.216 108.032 0.512 45.056-23.04 92.672-93.696 105.984z m249.856 229.888c-80.896 0-146.944-66.048-146.944-146.944S666.624 599.04 747.52 599.04s146.944 66.048 146.944 146.944-65.536 146.944-146.944 146.944z" fill="#ffffff" p-id="7652"></path><path d="M687.616 852.992c-6.656 0-12.8-2.56-17.92-7.68-10.24-10.24-10.24-26.112 0-36.352l62.976-62.976v-105.472c0-14.336 11.264-25.6 25.6-25.6s25.6 11.264 25.6 25.6v115.712c0 7.168-2.56 13.824-7.68 18.432L705.536 844.8c-4.608 5.12-10.752 8.192-17.92 8.192z" fill="#ffffff" p-id="7653"></path></svg>